<svg width="250" height="60" viewBox="0 0 250 60" fill="none" xmlns="http://www.w3.org/2000/svg">
<rect width="250" height="60" rx="20" fill="#7157DB"/>
<path d="M70.136 37.288C69.144 37.288 68.224 37.112 67.376 36.76C66.528 36.392 65.792 35.864 65.168 35.176C64.56 34.472 64.08 33.624 63.728 32.632C63.392 31.624 63.224 30.472 63.224 29.176C63.224 27.896 63.4 26.752 63.752 25.744C64.104 24.72 64.592 23.856 65.216 23.152C65.84 22.448 66.584 21.912 67.448 21.544C68.312 21.176 69.248 20.992 70.256 20.992C71.296 20.992 72.176 21.2 72.896 21.616C73.616 22.016 74.208 22.456 74.672 22.936L73.328 24.448C72.96 24.048 72.536 23.72 72.056 23.464C71.576 23.208 70.976 23.08 70.256 23.08C69.584 23.08 68.968 23.224 68.408 23.512C67.848 23.784 67.368 24.184 66.968 24.712C66.568 25.224 66.256 25.856 66.032 26.608C65.808 27.344 65.696 28.176 65.696 29.104C65.696 30.992 66.088 32.48 66.872 33.568C67.656 34.656 68.792 35.2 70.28 35.2C70.76 35.2 71.208 35.128 71.624 34.984C72.056 34.84 72.408 34.64 72.68 34.384V30.64H69.776V28.672H74.888V35.44C74.376 35.952 73.704 36.392 72.872 36.76C72.056 37.112 71.144 37.288 70.136 37.288ZM83.5906 37.288C82.8226 37.288 82.0866 37.152 81.3826 36.88C80.6786 36.608 80.0546 36.208 79.5106 35.68C78.9666 35.152 78.5346 34.512 78.2146 33.76C77.8946 32.992 77.7346 32.12 77.7346 31.144C77.7346 30.168 77.8946 29.296 78.2146 28.528C78.5346 27.76 78.9666 27.112 79.5106 26.584C80.0546 26.056 80.6786 25.656 81.3826 25.384C82.0866 25.112 82.8226 24.976 83.5906 24.976C84.3586 24.976 85.0946 25.112 85.7986 25.384C86.5026 25.656 87.1266 26.056 87.6706 26.584C88.2146 27.112 88.6466 27.76 88.9666 28.528C89.2866 29.296 89.4466 30.168 89.4466 31.144C89.4466 32.12 89.2866 32.992 88.9666 33.76C88.6466 34.512 88.2146 35.152 87.6706 35.68C87.1266 36.208 86.5026 36.608 85.7986 36.88C85.0946 37.152 84.3586 37.288 83.5906 37.288ZM83.5906 35.344C84.6466 35.344 85.4786 34.96 86.0866 34.192C86.6946 33.424 86.9986 32.408 86.9986 31.144C86.9986 29.88 86.6946 28.864 86.0866 28.096C85.4786 27.328 84.6466 26.944 83.5906 26.944C82.5346 26.944 81.7026 27.328 81.0946 28.096C80.4866 28.864 80.1826 29.88 80.1826 31.144C80.1826 32.408 80.4866 33.424 81.0946 34.192C81.7026 34.96 82.5346 35.344 83.5906 35.344ZM97.9813 37.288C97.2133 37.288 96.4773 37.152 95.7733 36.88C95.0693 36.608 94.4453 36.208 93.9013 35.68C93.3573 35.152 92.9253 34.512 92.6053 33.76C92.2853 32.992 92.1253 32.12 92.1253 31.144C92.1253 30.168 92.2853 29.296 92.6053 28.528C92.9253 27.76 93.3573 27.112 93.9013 26.584C94.4453 26.056 95.0693 25.656 95.7733 25.384C96.4773 25.112 97.2133 24.976 97.9813 24.976C98.7493 24.976 99.4853 25.112 100.189 25.384C100.893 25.656 101.517 26.056 102.061 26.584C102.605 27.112 103.037 27.76 103.357 28.528C103.677 29.296 103.837 30.168 103.837 31.144C103.837 32.12 103.677 32.992 103.357 33.76C103.037 34.512 102.605 35.152 102.061 35.68C101.517 36.208 100.893 36.608 100.189 36.88C99.4853 37.152 98.7493 37.288 97.9813 37.288ZM97.9813 35.344C99.0373 35.344 99.8693 34.96 100.477 34.192C101.085 33.424 101.389 32.408 101.389 31.144C101.389 29.88 101.085 28.864 100.477 28.096C99.8693 27.328 99.0373 26.944 97.9813 26.944C96.9253 26.944 96.0933 27.328 95.4853 28.096C94.8773 28.864 94.5733 29.88 94.5733 31.144C94.5733 32.408 94.8773 33.424 95.4853 34.192C96.0933 34.96 96.9253 35.344 97.9813 35.344ZM112.156 42.304C110.476 42.304 109.156 42.032 108.196 41.488C107.252 40.944 106.78 40.152 106.78 39.112C106.78 38.12 107.412 37.272 108.676 36.568V36.472C108.356 36.296 108.076 36.056 107.836 35.752C107.596 35.432 107.476 35.024 107.476 34.528C107.476 34.144 107.596 33.76 107.836 33.376C108.092 32.976 108.436 32.624 108.868 32.32V32.224C108.452 31.92 108.1 31.52 107.812 31.024C107.54 30.512 107.404 29.904 107.404 29.2C107.404 28.544 107.532 27.96 107.788 27.448C108.044 26.92 108.388 26.472 108.82 26.104C109.252 25.736 109.748 25.456 110.308 25.264C110.884 25.072 111.492 24.976 112.132 24.976C112.788 24.976 113.38 25.072 113.908 25.264H118.732V27.136H115.876C116.1 27.392 116.3 27.712 116.476 28.096C116.652 28.464 116.74 28.856 116.74 29.272C116.74 29.912 116.62 30.48 116.38 30.976C116.14 31.472 115.812 31.896 115.396 32.248C114.98 32.584 114.492 32.84 113.932 33.016C113.372 33.192 112.772 33.28 112.132 33.28C111.844 33.28 111.532 33.248 111.196 33.184C110.876 33.12 110.556 33.024 110.236 32.896C109.692 33.248 109.42 33.656 109.42 34.12C109.42 34.936 110.196 35.344 111.748 35.344H114.244C115.78 35.344 116.924 35.56 117.676 35.992C118.428 36.424 118.804 37.144 118.804 38.152C118.804 38.728 118.644 39.264 118.324 39.76C118.02 40.272 117.58 40.712 117.004 41.08C116.428 41.464 115.724 41.76 114.892 41.968C114.076 42.192 113.164 42.304 112.156 42.304ZM112.132 31.744C112.804 31.744 113.38 31.52 113.86 31.072C114.34 30.624 114.58 30 114.58 29.2C114.58 28.432 114.34 27.816 113.86 27.352C113.38 26.888 112.804 26.656 112.132 26.656C111.46 26.656 110.876 26.888 110.38 27.352C109.9 27.816 109.66 28.432 109.66 29.2C109.66 30 109.9 30.624 110.38 31.072C110.876 31.52 111.46 31.744 112.132 31.744ZM112.396 40.648C113.02 40.648 113.58 40.584 114.076 40.456C114.588 40.344 115.02 40.192 115.372 40C115.724 39.808 115.996 39.584 116.188 39.328C116.38 39.088 116.476 38.832 116.476 38.56C116.476 38.048 116.268 37.704 115.852 37.528C115.436 37.352 114.812 37.264 113.98 37.264H111.892C111.524 37.264 111.196 37.248 110.908 37.216C110.62 37.2 110.356 37.152 110.116 37.072C109.62 37.344 109.268 37.624 109.06 37.912C108.868 38.216 108.772 38.52 108.772 38.824C108.772 39.384 109.084 39.824 109.708 40.144C110.332 40.48 111.228 40.648 112.396 40.648ZM129.259 37.288C127.947 37.288 126.947 36.912 126.259 36.16C125.571 35.408 125.227 34.32 125.227 32.896V21.88H121.195V19.984H127.603V33.04C127.603 33.856 127.803 34.448 128.203 34.816C128.619 35.168 129.155 35.344 129.811 35.344C130.419 35.344 131.123 35.176 131.923 34.84L132.499 36.616C131.939 36.84 131.419 37.008 130.939 37.12C130.475 37.232 129.915 37.288 129.259 37.288ZM141.873 37.288C140.977 37.288 140.145 37.152 139.377 36.88C138.609 36.608 137.937 36.208 137.361 35.68C136.785 35.152 136.329 34.504 135.993 33.736C135.673 32.968 135.513 32.096 135.513 31.12C135.513 30.16 135.681 29.304 136.017 28.552C136.353 27.784 136.793 27.136 137.337 26.608C137.897 26.08 138.537 25.68 139.257 25.408C139.977 25.12 140.729 24.976 141.513 24.976C142.377 24.976 143.145 25.112 143.817 25.384C144.489 25.656 145.049 26.04 145.497 26.536C145.961 27.016 146.313 27.6 146.553 28.288C146.793 28.96 146.913 29.704 146.913 30.52C146.913 30.776 146.905 31.016 146.889 31.24C146.873 31.464 146.849 31.656 146.817 31.816H137.889C138.017 33.032 138.473 33.936 139.257 34.528C140.057 35.12 141.033 35.416 142.185 35.416C142.841 35.416 143.441 35.328 143.985 35.152C144.529 34.96 145.065 34.704 145.593 34.384L146.433 35.896C145.825 36.296 145.137 36.632 144.369 36.904C143.617 37.16 142.785 37.288 141.873 37.288ZM141.585 26.848C141.137 26.848 140.713 26.92 140.313 27.064C139.913 27.192 139.553 27.392 139.233 27.664C138.913 27.936 138.641 28.272 138.417 28.672C138.193 29.072 138.033 29.536 137.937 30.064H144.777C144.697 28.992 144.369 28.192 143.793 27.664C143.233 27.12 142.497 26.848 141.585 26.848ZM164.726 37V21.28H168.71C171.078 21.28 172.894 21.936 174.158 23.248C175.438 24.56 176.078 26.504 176.078 29.08C176.078 31.64 175.446 33.6 174.182 34.96C172.918 36.32 171.134 37 168.83 37H164.726ZM167.126 35.056H168.566C170.214 35.056 171.462 34.552 172.31 33.544C173.174 32.536 173.606 31.048 173.606 29.08C173.606 27.112 173.174 25.648 172.31 24.688C171.462 23.712 170.214 23.224 168.566 23.224H167.126V35.056ZM180.437 37V25.264H182.405L182.597 28H182.669C183.277 27.04 184.013 26.296 184.877 25.768C185.757 25.24 186.725 24.976 187.781 24.976C188.245 24.976 188.653 25.016 189.005 25.096C189.357 25.16 189.717 25.28 190.085 25.456L189.557 27.496C189.157 27.368 188.813 27.272 188.525 27.208C188.237 27.144 187.869 27.112 187.421 27.112C186.573 27.112 185.757 27.352 184.973 27.832C184.189 28.312 183.469 29.144 182.813 30.328V37H180.437ZM198.86 37V27.184H193.604V25.264H201.236V37H198.86ZM199.844 22.984C199.332 22.984 198.908 22.832 198.572 22.528C198.236 22.208 198.068 21.792 198.068 21.28C198.068 20.768 198.236 20.36 198.572 20.056C198.908 19.736 199.332 19.576 199.844 19.576C200.356 19.576 200.78 19.736 201.116 20.056C201.452 20.36 201.62 20.768 201.62 21.28C201.62 21.792 201.452 22.208 201.116 22.528C200.78 22.832 200.356 22.984 199.844 22.984ZM211.81 37L207.01 25.264H209.41L211.882 31.648C212.106 32.24 212.314 32.824 212.506 33.4C212.714 33.976 212.922 34.552 213.13 35.128H213.226C213.434 34.552 213.634 33.976 213.826 33.4C214.018 32.824 214.226 32.24 214.45 31.648L216.922 25.264H219.202L214.498 37H211.81ZM228.217 37.288C227.321 37.288 226.489 37.152 225.721 36.88C224.953 36.608 224.281 36.208 223.705 35.68C223.129 35.152 222.673 34.504 222.337 33.736C222.017 32.968 221.857 32.096 221.857 31.12C221.857 30.16 222.025 29.304 222.361 28.552C222.697 27.784 223.137 27.136 223.681 26.608C224.241 26.08 224.881 25.68 225.601 25.408C226.321 25.12 227.073 24.976 227.857 24.976C228.721 24.976 229.489 25.112 230.161 25.384C230.833 25.656 231.393 26.04 231.841 26.536C232.305 27.016 232.657 27.6 232.897 28.288C233.137 28.96 233.257 29.704 233.257 30.52C233.257 30.776 233.249 31.016 233.233 31.24C233.217 31.464 233.193 31.656 233.161 31.816H224.233C224.361 33.032 224.817 33.936 225.601 34.528C226.401 35.12 227.377 35.416 228.529 35.416C229.185 35.416 229.785 35.328 230.329 35.152C230.873 34.96 231.409 34.704 231.937 34.384L232.777 35.896C232.169 36.296 231.481 36.632 230.713 36.904C229.961 37.16 229.129 37.288 228.217 37.288ZM227.929 26.848C227.481 26.848 227.057 26.92 226.657 27.064C226.257 27.192 225.897 27.392 225.577 27.664C225.257 27.936 224.985 28.272 224.761 28.672C224.537 29.072 224.377 29.536 224.281 30.064H231.121C231.041 28.992 230.713 28.192 230.137 27.664C229.577 27.12 228.841 26.848 227.929 26.848Z" fill="white"/>
<path d="M36.1738 34.5264L24.9902 15.1875H36.0098L47.1934 34.5264H36.1738ZM26.7744 36.1396L21.2646 45.8125H42.4902L48 36.1396H26.7744ZM23.5342 17.6074L13 36.1396L18.5098 45.8125L29.2012 27.2734L23.5342 17.6074Z" fill="#5843A8"/>
</svg>
